<svg xmlns="http://www.w3.org/2000/svg" width="110" height="28" viewBox="0 0 110 28" fill="none">
    <g clip-path="url(#clip0_142_350)">
        <path d="M47.6257 1.95655C47.6257 2.3511 47.4838 2.54843 47.2022 2.54843H43.2008V12.2595C43.2008 12.47 42.8582 12.575 42.1733 12.575C41.517 12.575 41.187 12.47 41.187 12.2595V2.54843H37.2084C36.8817 2.54843 36.7202 2.33122 36.7202 1.89412C36.7202 1.45088 36.8817 1.22763 37.2084 1.22763L47.2022 1.22763C47.4838 1.22763 47.6257 1.47075 47.6257 1.95655ZM51.98 12.102C51.98 12.4043 51.6434 12.5557 50.9747 12.5557C50.3022 12.5557 49.9662 12.4043 49.9662 12.102V1.68081C49.9662 1.30939 50.3381 1.12209 51.078 1.12209C51.6793 1.12209 51.98 1.30939 51.98 1.68081V12.102ZM66.8548 12.0069C66.8966 12.0429 66.9194 12.0821 66.9194 12.1219C66.9194 12.2567 66.7672 12.3617 66.4698 12.4374C66.2502 12.4933 66.0273 12.5225 65.8071 12.5225C65.177 12.5225 64.6404 12.3518 64.1978 12.0069L58.4023 7.55174L56.8507 8.67856V12.1645C56.8507 12.4043 56.4892 12.5225 55.7617 12.5225C55.1441 12.5225 54.8375 12.4043 54.8375 12.1645V1.65759C54.8375 1.36196 55.1865 1.21435 55.8846 1.21435C56.5277 1.21435 56.8507 1.36197 56.8507 1.66093V6.76978L63.7613 1.75318C64.2593 1.39513 64.8345 1.21435 65.4842 1.21435C65.6783 1.21435 65.8914 1.24037 66.1273 1.29006C66.4345 1.35863 66.5862 1.45422 66.5862 1.56588C66.5862 1.59516 66.5639 1.62832 66.515 1.66419L59.8147 6.55321L66.8548 12.0069ZM80.546 9.25048C80.546 9.95347 80.2584 10.5779 79.6832 11.1194C79.2048 11.5632 78.5969 11.908 77.857 12.1545C76.9746 12.4502 75.9949 12.5982 74.9158 12.5982C72.2072 12.5982 70.3261 12.0069 69.2659 10.8238C68.8842 10.3938 68.6614 9.95346 68.6 9.50308C68.5803 9.34226 68.7195 9.21732 69.0267 9.13555C69.2399 9.06978 69.4562 9.03996 69.6699 9.03996C70.1739 9.03996 70.4517 9.15155 70.5006 9.37868C70.6588 10.0817 71.3216 10.6039 72.485 10.9393C73.2674 11.1593 74.0459 11.2675 74.8217 11.2675C76.4348 11.2675 77.5531 10.9553 78.1767 10.3281C78.4615 10.0391 78.6035 9.7202 78.6035 9.36874C78.6035 8.64929 78.0087 8.12373 76.8159 7.79495C76.338 7.66007 75.3877 7.46943 73.9589 7.22351C72.7209 7.01299 71.7869 6.7864 71.166 6.54987C69.7248 5.98456 69.0039 5.17666 69.0039 4.11841C69.0039 3.45137 69.2784 2.86338 69.8248 2.35771C70.2805 1.94716 70.8621 1.63492 71.57 1.41772C72.4072 1.16519 73.338 1.03699 74.3628 1.03699C76.7387 1.03699 78.4001 1.56255 79.3407 2.61086C79.7218 3.03748 79.9159 3.48119 79.9224 3.94097C79.9224 4.20732 79.5473 4.3422 78.8008 4.3422C78.3224 4.3422 78.0505 4.24327 77.9896 4.0465C77.6368 2.90648 76.4576 2.33457 74.4471 2.33457C73.5256 2.33457 72.7596 2.44282 72.1523 2.66335C71.3471 2.94903 70.9464 3.40221 70.9464 4.01334C70.9464 4.58533 71.383 5.01856 72.2556 5.3242C72.6079 5.44247 73.3837 5.60049 74.5825 5.79718C76.2118 6.07355 77.3335 6.31334 77.9472 6.51671C79.6799 7.1019 80.546 8.01153 80.546 9.25048ZM95.8052 12.2794C95.8117 12.3026 95.8149 12.3186 95.8149 12.3352C95.8149 12.4175 95.6595 12.4866 95.3496 12.5358C95.1006 12.5784 94.8711 12.5982 94.664 12.5982C94.0535 12.5982 93.6686 12.4933 93.5104 12.2827L91.39 8.11046H85.8533L83.8396 12.2402C83.7363 12.4502 83.3356 12.5557 82.6337 12.5557C81.9421 12.5557 81.6317 12.4502 81.6997 12.2402L87.269 1.68081C87.4691 1.38511 87.8926 1.23703 88.5456 1.23703C89.2502 1.23703 89.6867 1.38511 89.8547 1.68081L95.8052 12.2794ZM90.8115 6.89473L88.5651 2.97831L86.49 6.89473H90.8115ZM109.468 12.0263C109.468 12.3092 109.29 12.4502 108.938 12.4502C108.272 12.4502 107.477 11.9904 106.549 11.0669L99.4026 4.00341V11.9544C99.4026 12.1252 99.2537 12.2595 98.9563 12.3651C98.7334 12.4502 98.517 12.4933 98.3001 12.4933C97.7478 12.4933 97.4694 12.3126 97.4694 11.9544V1.6051C97.4694 1.30279 97.6667 1.15192 98.0609 1.15192C98.7073 1.15192 99.3667 1.48683 100.039 2.15379L107.535 9.62127V1.6051C107.535 1.26024 107.842 1.08949 108.459 1.08949C109.132 1.08949 109.468 1.26024 109.468 1.6051V12.0263ZM42.3804 18.9693C41.1691 18.9693 40.1873 19.223 39.4408 19.7281C38.5682 20.3266 38.1305 21.2135 38.1305 22.3917C38.1305 23.9224 38.8302 24.9397 40.227 25.4449C40.912 25.699 41.6361 25.8245 42.4049 25.8245C42.9665 25.8245 43.5548 25.7494 44.168 25.5985C44.8351 25.4327 45.3815 25.2117 45.8045 24.9376V23.1686H42.3804C41.9727 23.1686 41.7699 23.0051 41.7699 22.6757C41.7699 22.3315 41.9874 22.1585 42.4223 22.1585H47.3224V26.576C47.2854 26.8347 47.0506 26.9629 46.6151 26.9629C46.1285 26.9629 45.8665 26.8347 45.829 26.576V26.2191C44.7535 26.6335 43.6412 26.8424 42.4919 26.8424C41.4383 26.8424 40.4765 26.6938 39.6088 26.3976C38.5584 26.0334 37.7745 25.4802 37.2553 24.7414C36.7785 24.0578 36.5409 23.2963 36.5409 22.4574C36.5409 21.5628 36.7953 20.7609 37.3047 20.0497C37.7968 19.3612 38.4616 18.8539 39.2973 18.5245C40.1873 18.1753 41.2137 17.9995 42.3728 17.9995C44.1408 17.9995 45.4359 18.3786 46.2568 19.1378C46.4498 19.3158 46.6031 19.4971 46.7189 19.6778C46.7515 19.7281 46.7663 19.7861 46.7663 19.8563C46.7663 20.0298 46.6672 20.168 46.4721 20.2762C46.309 20.3691 46.1355 20.4145 45.9551 20.4145C45.7327 20.4145 45.5772 20.3487 45.4881 20.221C44.8949 19.3866 43.8587 18.9693 42.3804 18.9693ZM62.3309 20.6078C62.3309 21.623 61.8362 22.3392 60.8451 22.7586C61.7079 23.1559 62.1401 23.7135 62.1401 24.4324V26.5661C62.1401 26.7645 61.8933 26.8651 61.4013 26.8651C60.9142 26.8651 60.657 26.7645 60.6298 26.5661V24.49C60.6298 24.3192 60.5287 24.1109 60.3281 23.8644C59.9774 23.4323 59.3495 23.2162 58.4372 23.2162C58.4269 23.2162 58.4171 23.2162 58.4046 23.2162C58.3948 23.2162 58.3899 23.2162 58.3899 23.2162C58.2518 23.2162 58.1104 23.2162 57.9674 23.2162H55.4579V26.5661C55.4579 26.7645 55.1959 26.8651 54.6717 26.8651C54.1699 26.8651 53.9177 26.7645 53.9177 26.5661V18.1448H57.8337C58.5851 18.1448 59.176 18.1725 59.6061 18.2255C60.7434 18.3714 61.5372 18.7782 61.9819 19.449C62.2146 19.7988 62.3309 20.1856 62.3309 20.6078ZM60.7413 20.6553C60.7413 20.2785 60.6054 19.9596 60.3357 19.6955C60.0932 19.4595 59.7795 19.3036 59.3984 19.2279C59.144 19.1804 58.6645 19.155 57.9599 19.155H55.4579V22.206H57.9919C59.8241 22.206 60.7413 21.6882 60.7413 20.6553ZM79.7741 22.432C79.7741 23.3316 79.5224 24.1235 79.02 24.8066C78.5383 25.4703 77.8756 25.9704 77.0323 26.3097C76.1597 26.6639 75.2154 26.8424 74.2041 26.8424C73.2082 26.8424 72.3007 26.6789 71.4799 26.3495C70.5208 25.9726 69.7939 25.4123 69.3019 24.6712C68.8567 23.9976 68.6343 23.2841 68.6343 22.5304C68.6343 21.0074 69.2079 19.8436 70.3577 19.0423C71.3537 18.341 72.6395 17.9918 74.2118 17.9918C75.2029 17.9918 76.1054 18.1503 76.9214 18.4693C77.8707 18.8334 78.59 19.3838 79.0819 20.1155C79.5441 20.804 79.7741 21.5777 79.7741 22.432ZM78.1844 22.4248C78.1844 20.9819 77.5564 19.9696 76.3005 19.3887C75.6878 19.1103 74.993 18.9693 74.2188 18.9693C73.0027 18.9693 72.0458 19.2556 71.3515 19.8265C70.5996 20.4443 70.2239 21.3517 70.2239 22.5453C70.2239 23.6384 70.6295 24.4828 71.4401 25.0807C72.1599 25.6084 73.0793 25.8721 74.1971 25.8721C75.3611 25.8721 76.2984 25.5985 77.0079 25.0481C77.7913 24.4397 78.1844 23.5654 78.1844 22.4248ZM95.2768 23.088C95.2768 23.8721 95.1757 24.49 94.9757 24.9376C94.4042 26.2063 92.9852 26.8424 90.7257 26.8424C88.5598 26.8424 87.1707 26.3047 86.5623 25.2266C86.2655 24.6989 86.1176 23.9849 86.1176 23.088V18.5499C86.0654 18.2531 86.303 18.1051 86.832 18.1051C87.3833 18.1051 87.6578 18.2531 87.6578 18.5499V23.078C87.6578 23.7036 87.7144 24.1634 87.8258 24.4601C88.1645 25.3697 89.0866 25.8245 90.5898 25.8245C91.8408 25.8245 92.696 25.5908 93.156 25.1211C93.5441 24.7287 93.7366 24.0478 93.7366 23.078V18.5471C93.7366 18.2681 94.0089 18.1277 94.5554 18.1277C95.0371 18.1277 95.2768 18.2681 95.2768 18.5471V23.088ZM110.51 20.615C110.51 22.3491 109.056 23.2162 106.149 23.2162H103.716V26.4075C103.674 26.6661 103.459 26.7943 103.074 26.7943C102.903 26.7943 102.717 26.7595 102.517 26.6888C102.267 26.6087 102.154 26.5159 102.176 26.4075V18.1448H106.013C106.765 18.1448 107.356 18.1725 107.786 18.2255C108.923 18.3714 109.716 18.7809 110.161 19.4545C110.394 19.8038 110.51 20.1906 110.51 20.615ZM108.92 20.6553C108.92 20.2785 108.784 19.9596 108.515 19.6955C108.273 19.4595 107.958 19.3036 107.578 19.2279C107.323 19.1804 106.843 19.155 106.139 19.155H103.716V22.206H106.171C108.003 22.206 108.92 21.6882 108.92 20.6553Z" fill="#9D9E9E"/>
        <path fill-rule="evenodd" clip-rule="evenodd" d="M28.3038 22.5653V24.5334C28.3038 26.5167 26.702 28.1392 24.7443 28.1392H4.08431C2.12662 28.1392 0.524902 26.5167 0.524902 24.5334V22.7025L3.92242 20.91L7.71281 23.1889L13.6921 16.6738L17.9152 21.2689L20.8523 18.1474L28.3038 22.5653H28.3038Z" fill="#9D9E9E"/>
        <path fill-rule="evenodd" clip-rule="evenodd" d="M28.3037 21.456V22.0859L19.3406 13.0043L17.31 17.0498L13.3455 10.2563L7.07116 20.1991L5.17062 16.9975L0.524902 22.0589L0.524902 21.3574L5.49649 15.1706L7.38118 17.6599L13.3594 8.36615L17.1377 13.8517L18.9204 10.8535L28.3037 21.456ZM4.08434 0L24.7444 0C26.702 0 28.3037 1.62255 28.3037 3.60579V18.6021L18.9204 8.83799L17.1377 10.9391L13.3594 6.68677L7.38118 14.7477L5.49649 13.3796L0.524902 18.5756L0.524902 3.60579C0.524902 1.62255 2.12668 0 4.08431 0L4.08434 0Z" fill="url(#paint0_linear_142_350)"/>
    </g>
    <defs>
        <linearGradient id="paint0_linear_142_350" x1="14.4143" y1="22.0859" x2="14.4143" y2="0" gradientUnits="userSpaceOnUse">
            <stop stop-color="#7DC6E8"/>
            <stop offset="1" stop-color="#C4E6FA"/>
        </linearGradient>
        <clipPath id="clip0_142_350">
            <rect width="110" height="28" fill="white"/>
        </clipPath>
    </defs>
</svg>
